<svg id="Layer_1" data-name="Layer 1" xmlns="http://www.w3.org/2000/svg" xmlns:xlink="http://www.w3.org/1999/xlink" viewBox="0 0 374.4 116.3"><defs><style>.cls-1{fill:none;}.cls-2{fill:#fff;}.cls-3{clip-path:url(#clip-path);}</style><clipPath id="clip-path" transform="translate(-1.8 -0.85)"><ellipse class="cls-1" cx="340.8" cy="37.35" rx="35.4" ry="36.5"/></clipPath></defs><title>Studio-5-logo-02-04</title><path class="cls-2" d="M52.2,58.25a15.72,15.72,0,0,1-5,5.6,22,22,0,0,1-7.6,3.4,37,37,0,0,1-9.8,1.2A49.71,49.71,0,0,1,15,66.15a41.68,41.68,0,0,1-13.2-6.9l8.6-8.9a47.15,47.15,0,0,0,9.3,5.1,27.11,27.11,0,0,0,10.4,1.9,14.67,14.67,0,0,0,7-1.4,4.42,4.42,0,0,0,2.5-4v-.2a5.45,5.45,0,0,0-.5-2.2,5.14,5.14,0,0,0-2-1.8,21.9,21.9,0,0,0-4.1-1.6c-1.7-.5-4-1.1-6.8-1.7a85.14,85.14,0,0,1-9.1-2.4,31.68,31.68,0,0,1-6.9-3.2,13.42,13.42,0,0,1-4.4-4.8A15.2,15.2,0,0,1,4.2,27v-.2a15.19,15.19,0,0,1,1.7-7.1,17.47,17.47,0,0,1,4.7-5.5,21.56,21.56,0,0,1,7.3-3.5,33.79,33.79,0,0,1,9.3-1.2,42.25,42.25,0,0,1,24.5,7.3l-7.3,9.5a52.27,52.27,0,0,0-8.7-4.1,25.4,25.4,0,0,0-8.5-1.5,12.4,12.4,0,0,0-6.4,1.4,4.23,4.23,0,0,0-2.1,3.6v.2a4.75,4.75,0,0,0,.6,2.4,4.56,4.56,0,0,0,2.2,1.8,26.39,26.39,0,0,0,4.4,1.6c1.9.5,4.2,1.1,7,1.7A73.7,73.7,0,0,1,41.8,36a29,29,0,0,1,6.6,3.4,14.09,14.09,0,0,1,4.1,4.7,14.5,14.5,0,0,1,1.4,6.5v.2A14.33,14.33,0,0,1,52.2,58.25Z" transform="translate(-1.8 -0.85)"/><path class="cls-2" d="M96.5,22v45.7H82V22H61.9V10.25h54.6v11.6h-20Z" transform="translate(-1.8 -0.85)"/><path class="cls-2" d="M182.1,54.05a22.68,22.68,0,0,1-5.8,8.1,23.37,23.37,0,0,1-9.1,4.8,41,41,0,0,1-12,1.6c-8.9,0-15.8-2.1-20.9-6.4s-7.6-10.6-7.6-19.1V10.25h14.5v32.5c0,4.7,1.3,8.2,3.8,10.6s6,3.6,10.5,3.6,7.9-1.1,10.5-3.4,3.8-5.7,3.8-10.3v-33h14.5v32.4A34.48,34.48,0,0,1,182.1,54.05Z" transform="translate(-1.8 -0.85)"/><path class="cls-2" d="M257.1,50.25a27.41,27.41,0,0,1-7.2,9.1,34.94,34.94,0,0,1-11.1,6.1,42.74,42.74,0,0,1-14.2,2.2H198.9V10.25h25.7a43.15,43.15,0,0,1,14.2,2.2,34.75,34.75,0,0,1,11.1,6,27.41,27.41,0,0,1,7.2,9.1,25.28,25.28,0,0,1,2.5,11.3v.2A25.16,25.16,0,0,1,257.1,50.25ZM244.5,39a16.61,16.61,0,0,0-1.5-7,15.87,15.87,0,0,0-4.1-5.5,19.26,19.26,0,0,0-6.3-3.6,26,26,0,0,0-8.1-1.3H213.4v34.6h11.2a25.54,25.54,0,0,0,8.1-1.2,19.33,19.33,0,0,0,6.3-3.5,16.82,16.82,0,0,0,4.1-5.4,16,16,0,0,0,1.5-7V39Z" transform="translate(-1.8 -0.85)"/><path class="cls-2" d="M273.2,67.65V10.25h14.5v57.4Z" transform="translate(-1.8 -0.85)"/><ellipse id="SVGID" class="cls-2" cx="339" cy="36.5" rx="35.4" ry="36.5"/><g class="cls-3"><path d="M333.2,23.55l-4.3,9c12.9,2,25.7,7.6,25.7,23.2,0,14.6-10.6,23.2-24.2,23.2-3.1,0-11.3-1.2-11.3-5.8a3.39,3.39,0,0,1,3.6-3.3c2.9,0,10.8,5.7,12.9,5.7,8.2,0,12.5-8,12.5-15.6,0-13.2-13.2-19.6-24.4-19.6-.5,0-1.8,0-1.8-.9s8.8-20.1,9.8-22.2h18.6a5.73,5.73,0,0,0,4.2-2.4l.7.7-3.6,8.1H333.2Z" transform="translate(-1.8 -0.85)"/></g><path class="cls-2" d="M126.9,98.15l-1.2-2.8a23.46,23.46,0,0,1,9.6-1.9c7.2,0,11.2,3.2,11.2,9.2v14h-3.8v-3.5c-1.8,2.1-4.9,3.9-9.5,3.9-4.9,0-9.8-2.4-9.8-7.2s4.6-7.4,11.2-7.4a30.84,30.84,0,0,1,8.1,1v-.8c0-4.1-2.9-6.2-7.8-6.2A20,20,0,0,0,126.9,98.15Zm.4,11.7c0,2.9,3.1,4.6,6.6,4.6,4.8,0,8.8-2.6,8.8-6.2v-2.2a30,30,0,0,0-7.7-1C130.1,105.05,127.3,106.85,127.3,109.85Z" transform="translate(-1.8 -0.85)"/><path class="cls-2" d="M158.7,116.65h-3.9V93.75h3.9v6a11.41,11.41,0,0,1,10.7-6.4v3.7h-.3c-5.7,0-10.4,3.6-10.4,10.5Z" transform="translate(-1.8 -0.85)"/><path class="cls-2" d="M186.1,117.15c-7.7,0-13.5-5.4-13.5-11.9s5.8-12,13.5-12a14.15,14.15,0,0,1,10.5,4.1l-2.6,2.4c-2.1-1.9-4.4-3.5-8-3.5-5.3,0-9.4,3.9-9.4,8.9s4.2,8.9,9.7,8.9a11.57,11.57,0,0,0,8-3.4l2.5,2A13.86,13.86,0,0,1,186.1,117.15Z" transform="translate(-1.8 -0.85)"/><path class="cls-2" d="M207.2,116.65h-3.9V84.35h3.9v13.4a10.24,10.24,0,0,1,9-4.5c6.4,0,10.1,3.7,10.1,9.2v14.2h-3.9v-13.4c0-4.2-2.6-6.9-7.3-6.9-4.5,0-7.9,2.9-7.9,7.2Z" transform="translate(-1.8 -0.85)"/><path class="cls-2" d="M234.7,88.75V85h4.5v3.8Zm.3,27.9V93.75h3.9v22.9Z" transform="translate(-1.8 -0.85)"/><path class="cls-2" d="M253.3,110.15c0,2.8,1.8,3.8,4.4,3.8a9,9,0,0,0,3.8-.8v2.9a11.23,11.23,0,0,1-4.7,1c-4.2,0-7.4-1.8-7.4-6.5V96.75h-3.7v-3h3.7v-6.9h3.9v6.9h8.3v3h-8.3v13.4Z" transform="translate(-1.8 -0.85)"/><path class="cls-2" d="M279.4,114.15a11.8,11.8,0,0,0,8.3-3.2l2.4,1.9a14.17,14.17,0,0,1-10.8,4.3c-7.2,0-13.1-4.8-13.1-11.9,0-6.6,5.3-11.9,12.6-11.9,7.8,0,12.3,5.4,12.3,12.1a4.48,4.48,0,0,1-.1,1.1H270.2C270.7,111.45,274.7,114.15,279.4,114.15ZM287,104c-.4-4.2-3.2-7.8-8.4-7.8a8.43,8.43,0,0,0-8.5,7.8Z" transform="translate(-1.8 -0.85)"/><path class="cls-2" d="M309.7,117.15c-7.7,0-13.5-5.4-13.5-11.9s5.8-12,13.5-12a14.15,14.15,0,0,1,10.5,4.1l-2.6,2.4c-2.1-1.9-4.4-3.5-8-3.5-5.3,0-9.4,3.9-9.4,8.9s4.2,8.9,9.7,8.9a11.57,11.57,0,0,0,8-3.4l2.5,2A13.71,13.71,0,0,1,309.7,117.15Z" transform="translate(-1.8 -0.85)"/><path class="cls-2" d="M332.2,110.15c0,2.8,1.8,3.8,4.4,3.8a9,9,0,0,0,3.8-.8v2.9a11.23,11.23,0,0,1-4.7,1c-4.2,0-7.4-1.8-7.4-6.5V96.75h-3.7v-3h3.7v-6.9h3.9v6.9h8.3v3h-8.3v13.4Z" transform="translate(-1.8 -0.85)"/><path class="cls-2" d="M356.1,117.05a19.79,19.79,0,0,1-10.9-3.4l2-2.4a16.34,16.34,0,0,0,9.1,2.9c3.2,0,5.4-1.4,5.4-3.6v-.1c0-2.3-3.1-3.2-6.6-4-4.1-1-8.7-2.3-8.7-6.5v-.1c0-3.9,3.8-6.5,8.9-6.5a20.68,20.68,0,0,1,9.5,2.5l-1.8,2.6a15.88,15.88,0,0,0-7.8-2.2c-3.1,0-5.1,1.4-5.1,3.3v.1c0,2.2,3.3,3,6.8,3.9,4.1,1.1,8.4,2.4,8.4,6.5v.1C365.5,114.55,361.4,117.05,356.1,117.05Z" transform="translate(-1.8 -0.85)"/></svg>