<?xml version="1.0" encoding="utf-8"?>
<!-- Generator: Adobe Illustrator 23.0.1, SVG Export Plug-In . SVG Version: 6.00 Build 0)  -->
<svg version="1.1" id="Layer_1" xmlns="http://www.w3.org/2000/svg" xmlns:xlink="http://www.w3.org/1999/xlink" x="0px" y="0px"
	 viewBox="0 0 748.9 83.9" style="enable-background:new 0 0 748.9 83.9;" xml:space="preserve">
<style type="text/css">
	.st0{clip-path:url(#SVGID_6_);}
	.st1{fill:#FFFFFF;}
	.st2{clip-path:url(#SVGID_10_);}
</style>
<g>
	<path d="M53.8,60.3c-1.2,2.2-2.8,4.1-5,5.6c-2.1,1.5-4.7,2.7-7.6,3.4c-2.9,0.8-6.2,1.2-9.8,1.2c-5,0-10-0.8-14.8-2.3
		c-4.8-1.5-9.2-3.8-13.2-6.9l8.6-8.9c3,2.1,6.1,3.8,9.3,5.1c3.2,1.3,6.6,1.9,10.4,1.9c3,0,5.4-0.5,7-1.4c1.7-1,2.5-2.3,2.5-4v-0.2
		c0-0.8-0.2-1.5-0.5-2.2c-0.3-0.6-1-1.2-2-1.8c-1-0.5-2.3-1.1-4.1-1.6c-1.7-0.5-4-1.1-6.8-1.7c-3.3-0.7-6.4-1.5-9.1-2.4
		c-2.7-0.9-5-2-6.9-3.2c-1.9-1.3-3.4-2.9-4.4-4.8c-1-1.9-1.6-4.3-1.6-7.1v-0.2c0-2.6,0.6-5,1.7-7.1c1.1-2.1,2.7-3.9,4.7-5.5
		c2-1.5,4.4-2.7,7.3-3.5c2.8-0.8,5.9-1.2,9.3-1.2c4.8,0,9.3,0.6,13.3,1.9c4.1,1.3,7.8,3.1,11.2,5.4L46,28.3c-3-1.7-5.8-3.1-8.7-4.1
		c-2.8-1-5.7-1.5-8.5-1.5s-4.9,0.5-6.4,1.4c-1.4,1-2.1,2.1-2.1,3.6v0.2c0,0.9,0.2,1.7,0.6,2.4c0.4,0.7,1.1,1.3,2.2,1.8
		c1.1,0.5,2.5,1.1,4.4,1.6c1.9,0.5,4.2,1.1,7,1.7c3.3,0.8,6.3,1.6,8.9,2.6c2.6,1,4.8,2.1,6.6,3.4c1.8,1.3,3.1,2.9,4.1,4.7
		c0.9,1.8,1.4,4,1.4,6.5v0.2C55.6,55.6,55,58.1,53.8,60.3z"/>
	<path d="M98.1,23.9v45.7H83.6V23.9H63.5V12.3h54.6v11.6H98.1z"/>
	<path d="M183.7,56.1c-1.4,3.2-3.3,5.9-5.8,8.1c-2.5,2.2-5.6,3.8-9.1,4.8c-3.6,1.1-7.6,1.6-12,1.6c-8.9,0-15.8-2.1-20.9-6.4
		c-5.1-4.3-7.6-10.6-7.6-19.1V12.3h14.5v32.5c0,4.7,1.3,8.2,3.8,10.6c2.5,2.4,6,3.6,10.5,3.6c4.5,0,7.9-1.1,10.5-3.4
		c2.5-2.3,3.8-5.7,3.8-10.3V12.3h14.5v32.4C185.7,49.1,185,52.8,183.7,56.1z"/>
	<path d="M258.7,52.3c-1.7,3.5-4.1,6.5-7.2,9.1c-3.1,2.6-6.8,4.6-11.1,6.1c-4.3,1.5-9,2.2-14.2,2.2h-25.7V12.3h25.7
		c5.1,0,9.9,0.7,14.2,2.2c4.3,1.4,8,3.5,11.1,6c3.1,2.6,5.5,5.6,7.2,9.1c1.7,3.5,2.5,7.2,2.5,11.3V41
		C261.2,45,260.4,48.8,258.7,52.3z M246.1,41c0-2.5-0.5-4.8-1.5-7c-1-2.1-2.3-4-4.1-5.5c-1.7-1.5-3.8-2.7-6.3-3.6
		c-2.4-0.8-5.2-1.3-8.1-1.3H215v34.6h11.2c3,0,5.7-0.4,8.1-1.2c2.4-0.8,4.5-2,6.3-3.5c1.7-1.5,3.1-3.3,4.1-5.4c1-2.1,1.5-4.4,1.5-7
		V41z"/>
	<path d="M274.8,69.7V12.3h14.5v57.4H274.8z"/>
</g>
<g>
	<defs>
		<ellipse id="SVGID_9_" cx="342.4" cy="39.4" rx="35.4" ry="36.5"/>
	</defs>
	<use xlink:href="#SVGID_9_"  style="overflow:visible;"/>
	<clipPath id="SVGID_2_">
		<use xlink:href="#SVGID_9_"  style="overflow:visible;"/>
	</clipPath>
	<g style="clip-path:url(#SVGID_2_);">
		<path class="st1" d="M334.8,25.6l-4.3,9c12.9,2,25.7,7.6,25.7,23.2c0,14.6-10.6,23.2-24.2,23.2c-3.1,0-11.3-1.2-11.3-5.8
			c0-2.1,1.8-3.3,3.6-3.3c2.9,0,10.8,5.7,12.9,5.7c8.2,0,12.5-8,12.5-15.6c0-13.2-13.2-19.6-24.4-19.6c-0.5,0-1.8,0-1.8-0.9
			c0-0.8,8.8-20.1,9.8-22.2h18.6c1.7,0,3.1-1.1,4.2-2.4l0.7,0.7l-3.6,8.1H334.8z"/>
	</g>
</g>
<g>
	<path d="M422.6,31.1l-1.6-3.8c3.9-1.6,7.8-2.6,12.9-2.6c9.7,0,15.1,4.3,15.1,12.4v18.9h-5.1v-4.7c-2.5,2.8-6.6,5.3-12.9,5.3
		c-6.6,0-13.3-3.2-13.3-9.7c0-6.6,6.2-10,15.2-10c4.5,0,7.8,0.5,10.9,1.3v-1.1c0-5.6-3.9-8.4-10.6-8.4
		C429.2,28.8,425.9,29.8,422.6,31.1z M423.2,46.9c0,3.9,4.1,6.2,8.9,6.2c6.5,0,11.9-3.5,11.9-8.4v-3c-2.6-0.7-6.1-1.3-10.4-1.3
		C426.9,40.4,423.2,43,423.2,46.9z"/>
	<path d="M465.6,56.1h-5.3V25.2h5.3v8.1c2.6-5.1,7.8-8.8,14.5-8.6v5h-0.4c-7.8,0-14.1,4.8-14.1,14.2V56.1z"/>
	<path d="M502.6,56.8c-10.4,0-18.2-7.4-18.2-16.1c0-8.8,7.8-16.2,18.2-16.2c6.7,0,10.9,2.5,14.2,5.5l-3.5,3.2
		c-2.8-2.6-6-4.7-10.8-4.7c-7.2,0-12.7,5.3-12.7,12c0,6.8,5.6,12.1,13.1,12.1c4.5,0,8-2,10.9-4.6l3.4,2.8
		C513.5,54.3,509.3,56.8,502.6,56.8z"/>
	<path d="M531.1,56.1h-5.3V12.5h5.3v18.1c2.3-3.3,6-6,12.2-6c8.6,0,13.6,5,13.6,12.4v19.2h-5.3V38.1c0-5.7-3.6-9.3-9.8-9.3
		c-6.1,0-10.7,3.9-10.7,9.7V56.1z"/>
	<path d="M568.3,18.4v-5.1h6v5.1H568.3z M568.7,56.1V25.2h5.3v30.9H568.7z"/>
	<path d="M593.4,47.3c0,3.8,2.4,5.1,6,5.1c1.8,0,3.3-0.3,5.2-1.1v3.9c-1.9,0.8-3.8,1.3-6.4,1.3c-5.7,0-10-2.5-10-8.7V29.3h-4.9v-4.1
		h4.9v-9.3h5.3v9.3h11.3v4.1h-11.3V47.3z"/>
	<path d="M628.7,52.8c4.9,0,8.3-1.7,11.2-4.4l3.3,2.6c-3.6,3.5-7.9,5.8-14.6,5.8c-9.8,0-17.7-6.5-17.7-16.1c0-9,7.2-16.1,17-16.1
		c10.5,0,16.6,7.3,16.6,16.4c0,0.4,0,0.9-0.1,1.4h-28.2C616.9,49.1,622.4,52.8,628.7,52.8z M639,38.9c-0.5-5.6-4.3-10.5-11.3-10.5
		c-6.2,0-10.9,4.5-11.5,10.5H639z"/>
	<path d="M669.7,56.8c-10.4,0-18.2-7.4-18.2-16.1c0-8.8,7.8-16.2,18.2-16.2c6.7,0,10.9,2.5,14.2,5.5l-3.5,3.2
		c-2.8-2.6-6-4.7-10.8-4.7c-7.2,0-12.7,5.3-12.7,12c0,6.8,5.6,12.1,13.1,12.1c4.5,0,8-2,10.9-4.6l3.4,2.8
		C680.6,54.3,676.4,56.8,669.7,56.8z"/>
	<path d="M700.1,47.3c0,3.8,2.4,5.1,6,5.1c1.8,0,3.3-0.3,5.2-1.1v3.9c-1.9,0.8-3.8,1.3-6.4,1.3c-5.7,0-10-2.5-10-8.7V29.3h-4.9v-4.1
		h4.9v-9.3h5.3v9.3h11.3v4.1h-11.3V47.3z"/>
	<path d="M732.4,56.7c-5.1,0-10.7-1.7-14.7-4.5l2.7-3.3c3.8,2.5,8.1,3.9,12.3,3.9c4.3,0,7.4-1.9,7.4-4.9v-0.1c0-3.1-4.2-4.3-8.9-5.4
		c-5.6-1.4-11.8-3-11.8-8.7v-0.1c0-5.3,5.1-8.8,12.1-8.8c4.3,0,9.1,1.3,12.8,3.4l-2.4,3.5c-3.3-1.9-7.1-3-10.5-3
		c-4.2,0-6.9,1.9-6.9,4.5v0.1c0,2.9,4.4,4.1,9.1,5.3c5.5,1.4,11.4,3.3,11.4,8.9v0.1C745.1,53.3,739.5,56.7,732.4,56.7z"/>
</g>
</svg>
